<?xml version="1.0" standalone="no"?>
<!DOCTYPE svg PUBLIC "-//W3C//DTD SVG 20010904//EN"
 "http://www.w3.org/TR/2001/REC-SVG-20010904/DTD/svg10.dtd">
<svg version="1.0" xmlns="http://www.w3.org/2000/svg"
 width="512.000000pt" height="512.000000pt" viewBox="0 0 512.000000 512.000000"
 preserveAspectRatio="xMidYMid meet">
<metadata>
Created by potrace 1.14, written by Peter Selinger 2001-2017
</metadata>
<g transform="translate(0.000000,512.000000) scale(0.100000,-0.100000)"
fill="#000000" stroke="none">
<path d="M0 2560 l0 -2560 2560 0 2560 0 0 2560 0 2560 -2560 0 -2560 0 0
-2560z m1392 264 c84 -20 164 -43 176 -51 35 -22 53 -73 42 -114 -14 -48 -12
-69 5 -69 12 0 15 13 15 56 l0 55 48 -3 47 -3 3 -52 3 -53 70 0 69 0 0 -87 c0
-93 13 -123 53 -123 45 0 57 27 57 122 l0 88 50 0 50 0 0 -35 0 -35 33 36 c39
43 93 54 150 31 l37 -16 0 105 0 104 50 0 50 0 0 -95 0 -95 39 0 c39 0 40 -2
79 -71 l39 -71 33 71 33 71 43 0 44 0 0 85 0 85 98 0 c79 0 103 -4 130 -20 57
-35 67 -117 21 -166 -21 -23 -21 -24 -3 -30 10 -4 27 -14 37 -22 16 -14 17
-12 17 26 l0 42 50 0 50 0 0 -83 c0 -92 15 -127 55 -127 44 0 55 23 55 121 l0
89 50 0 50 0 0 -36 0 -37 21 27 c42 54 112 71 169 41 l30 -16 0 106 0 105 50
0 50 0 0 -137 0 -138 20 32 c35 58 113 80 173 49 l27 -15 0 105 0 104 50 0 50
0 0 -95 0 -95 44 0 45 0 38 -72 37 -72 33 72 33 72 56 0 56 0 -109 -210 -108
-210 -57 0 -56 0 48 93 48 92 -51 90 -52 90 -3 -112 -3 -113 -44 0 c-32 0 -45
4 -45 14 0 11 -8 10 -37 -5 -21 -10 -48 -19 -60 -19 -41 0 -92 28 -113 62
l-20 33 0 -42 0 -43 -49 0 c-27 0 -51 5 -53 11 -2 6 -14 5 -33 -5 -56 -29
-126 -11 -166 43 l-23 31 -13 -29 c-36 -74 -213 -81 -265 -11 -21 29 -22 29
-36 9 -25 -36 -74 -49 -186 -49 l-105 0 -3 111 -3 112 -94 -182 -94 -181 -54
0 c-29 0 -53 3 -53 8 0 4 21 45 45 91 l44 85 -47 85 -47 86 -3 -107 -3 -108
-49 0 c-37 0 -50 4 -50 14 0 11 -8 10 -38 -6 -53 -29 -105 -19 -152 31 l-35
37 -20 -30 c-39 -60 -173 -73 -238 -25 -24 18 -29 19 -24 5 9 -22 -36 -40 -82
-32 -60 9 -76 35 -80 131 -3 76 -5 85 -22 85 -11 0 -19 7 -20 18 0 9 -20 -58
-43 -149 -24 -91 -46 -171 -51 -178 -4 -7 -23 -19 -41 -27 -31 -13 -46 -11
-200 27 l-166 42 6 31 c5 28 12 60 30 134 3 13 8 33 12 45 4 12 8 31 9 42 1
11 5 28 9 37 4 9 4 37 -2 62 -10 50 3 104 36 139 12 12 26 43 32 70 7 26 14
47 16 47 2 0 72 -16 156 -36z m2982 -415 c14 -11 26 -30 26 -42 0 -26 -38 -67
-62 -67 -23 0 -68 43 -68 65 0 20 44 65 63 65 8 0 26 -9 41 -21z"/>
<path d="M2810 2635 c0 -43 1 -45 30 -45 22 0 33 6 41 24 16 35 -3 66 -41 66
-29 0 -30 -2 -30 -45z"/>
<path d="M1732 2458 c2 -50 6 -63 21 -66 15 -3 17 5 17 62 0 60 -2 66 -20 66
-19 0 -21 -5 -18 -62z"/>
<path d="M2196 2496 c-15 -14 -26 -34 -26 -44 0 -31 33 -64 63 -64 80 0 92
109 15 127 -21 5 -33 1 -52 -19z"/>
<path d="M3434 2494 c-20 -19 -24 -31 -19 -52 10 -41 24 -52 66 -52 43 0 59
18 59 69 0 20 -8 35 -22 45 -32 23 -55 20 -84 -10z"/>
<path d="M3770 2507 c-28 -14 -38 -63 -20 -97 16 -29 83 -28 104 2 22 32 20
55 -9 83 -27 28 -39 30 -75 12z"/>
<path d="M2810 2445 l0 -55 34 0 c48 0 81 29 72 64 -7 28 -39 46 -82 46 -22 0
-24 -3 -24 -55z"/>
</g>
</svg>
